<mxfile host="app.diagrams.net" modified="2022-01-26T11:57:58.001Z" agent="5.0 (Macintosh; Intel Mac OS X 10_15_7) AppleWebKit/537.36 (KHTML, like Gecko) Chrome/97.0.4692.99 Safari/537.36" etag="0aTvHup8DO2ERzEGeCoq" version="16.4.6" type="github">
  <diagram id="kHkTU6xeaGpGSH-ghrDY" name="Page-1">
    <mxGraphModel dx="1928" dy="1889" grid="0" gridSize="10" guides="1" tooltips="1" connect="1" arrows="1" fold="1" page="1" pageScale="1" pageWidth="827" pageHeight="1169" math="0" shadow="0">
      <root>
        <mxCell id="0" />
        <mxCell id="1" parent="0" />
        <mxCell id="qSFVLpms0hrkaBnBQ-_W-4" value="" style="edgeStyle=orthogonalEdgeStyle;rounded=0;orthogonalLoop=1;jettySize=auto;html=1;fontSize=9;" edge="1" parent="1" source="qSFVLpms0hrkaBnBQ-_W-1" target="qSFVLpms0hrkaBnBQ-_W-3">
          <mxGeometry relative="1" as="geometry" />
        </mxCell>
        <mxCell id="qSFVLpms0hrkaBnBQ-_W-5" value="妻子" style="edgeLabel;html=1;align=center;verticalAlign=middle;resizable=0;points=[];fontSize=9;" vertex="1" connectable="0" parent="qSFVLpms0hrkaBnBQ-_W-4">
          <mxGeometry x="0.0606" y="-1" relative="1" as="geometry">
            <mxPoint x="1" y="-1" as="offset" />
          </mxGeometry>
        </mxCell>
        <mxCell id="qSFVLpms0hrkaBnBQ-_W-10" value="" style="edgeStyle=orthogonalEdgeStyle;rounded=0;orthogonalLoop=1;jettySize=auto;html=1;fontSize=9;" edge="1" parent="1" source="qSFVLpms0hrkaBnBQ-_W-1" target="qSFVLpms0hrkaBnBQ-_W-9">
          <mxGeometry relative="1" as="geometry" />
        </mxCell>
        <mxCell id="qSFVLpms0hrkaBnBQ-_W-11" value="同胞姐姐" style="edgeLabel;html=1;align=center;verticalAlign=middle;resizable=0;points=[];fontSize=9;" vertex="1" connectable="0" parent="qSFVLpms0hrkaBnBQ-_W-10">
          <mxGeometry x="-0.1803" relative="1" as="geometry">
            <mxPoint as="offset" />
          </mxGeometry>
        </mxCell>
        <mxCell id="qSFVLpms0hrkaBnBQ-_W-1" value="&lt;span style=&quot;text-align: left; font-size: 9px;&quot;&gt;马格纳斯·派伊&lt;br style=&quot;font-size: 9px;&quot;&gt;男爵&lt;br style=&quot;font-size: 9px;&quot;&gt;&lt;/span&gt;" style="rounded=1;whiteSpace=wrap;html=1;sketch=0;fillColor=#f8cecc;strokeColor=#b85450;shadow=0;glass=0;fontSize=9;" vertex="1" parent="1">
          <mxGeometry x="168" y="216" width="108" height="50" as="geometry" />
        </mxCell>
        <mxCell id="qSFVLpms0hrkaBnBQ-_W-7" value="" style="edgeStyle=orthogonalEdgeStyle;rounded=0;orthogonalLoop=1;jettySize=auto;html=1;fontSize=9;" edge="1" parent="1" source="qSFVLpms0hrkaBnBQ-_W-3" target="qSFVLpms0hrkaBnBQ-_W-6">
          <mxGeometry relative="1" as="geometry" />
        </mxCell>
        <mxCell id="qSFVLpms0hrkaBnBQ-_W-8" value="儿子" style="edgeLabel;html=1;align=center;verticalAlign=middle;resizable=0;points=[];fontSize=9;" vertex="1" connectable="0" parent="qSFVLpms0hrkaBnBQ-_W-7">
          <mxGeometry x="-0.102" y="3" relative="1" as="geometry">
            <mxPoint y="-4" as="offset" />
          </mxGeometry>
        </mxCell>
        <mxCell id="qSFVLpms0hrkaBnBQ-_W-3" value="&lt;span style=&quot;text-align: left; font-size: 9px;&quot;&gt;弗朗西斯·派伊&lt;br style=&quot;font-size: 9px;&quot;&gt;&lt;/span&gt;" style="rounded=1;whiteSpace=wrap;html=1;sketch=0;shadow=0;glass=0;fontSize=9;" vertex="1" parent="1">
          <mxGeometry x="168" y="309" width="108" height="50" as="geometry" />
        </mxCell>
        <mxCell id="qSFVLpms0hrkaBnBQ-_W-6" value="&lt;span style=&quot;text-align: left; font-size: 9px;&quot;&gt;弗雷德里克·派伊&lt;br style=&quot;font-size: 9px;&quot;&gt;&lt;/span&gt;" style="rounded=1;whiteSpace=wrap;html=1;sketch=0;shadow=0;glass=0;fontSize=9;" vertex="1" parent="1">
          <mxGeometry x="3" y="309" width="108" height="50" as="geometry" />
        </mxCell>
        <mxCell id="qSFVLpms0hrkaBnBQ-_W-9" value="&lt;span style=&quot;text-align: left; font-size: 9px;&quot;&gt;克拉丽莎·派伊&lt;br style=&quot;font-size: 9px;&quot;&gt;&lt;/span&gt;" style="rounded=1;whiteSpace=wrap;html=1;sketch=0;shadow=0;glass=0;fontSize=9;" vertex="1" parent="1">
          <mxGeometry x="365.5" y="216" width="108" height="50" as="geometry" />
        </mxCell>
        <mxCell id="qSFVLpms0hrkaBnBQ-_W-16" value="" style="edgeStyle=orthogonalEdgeStyle;rounded=0;orthogonalLoop=1;jettySize=auto;html=1;fontSize=9;" edge="1" parent="1" source="qSFVLpms0hrkaBnBQ-_W-12" target="qSFVLpms0hrkaBnBQ-_W-13">
          <mxGeometry relative="1" as="geometry" />
        </mxCell>
        <mxCell id="qSFVLpms0hrkaBnBQ-_W-17" value="丈夫" style="edgeLabel;html=1;align=center;verticalAlign=middle;resizable=0;points=[];fontSize=9;" vertex="1" connectable="0" parent="qSFVLpms0hrkaBnBQ-_W-16">
          <mxGeometry x="-0.1313" y="2" relative="1" as="geometry">
            <mxPoint x="9" y="-2" as="offset" />
          </mxGeometry>
        </mxCell>
        <mxCell id="qSFVLpms0hrkaBnBQ-_W-19" value="" style="edgeStyle=orthogonalEdgeStyle;rounded=0;orthogonalLoop=1;jettySize=auto;html=1;fontSize=9;" edge="1" parent="1" source="qSFVLpms0hrkaBnBQ-_W-12" target="qSFVLpms0hrkaBnBQ-_W-14">
          <mxGeometry relative="1" as="geometry">
            <Array as="points">
              <mxPoint x="59" y="108" />
              <mxPoint x="124" y="108" />
            </Array>
          </mxGeometry>
        </mxCell>
        <mxCell id="qSFVLpms0hrkaBnBQ-_W-20" value="儿子" style="edgeLabel;html=1;align=center;verticalAlign=middle;resizable=0;points=[];fontSize=9;" vertex="1" connectable="0" parent="qSFVLpms0hrkaBnBQ-_W-19">
          <mxGeometry x="-0.0507" y="-2" relative="1" as="geometry">
            <mxPoint as="offset" />
          </mxGeometry>
        </mxCell>
        <mxCell id="qSFVLpms0hrkaBnBQ-_W-55" value="小儿子" style="edgeStyle=orthogonalEdgeStyle;rounded=0;orthogonalLoop=1;jettySize=auto;html=1;entryX=0.75;entryY=1;entryDx=0;entryDy=0;fontSize=9;fontColor=default;" edge="1" parent="1" source="qSFVLpms0hrkaBnBQ-_W-12" target="qSFVLpms0hrkaBnBQ-_W-15">
          <mxGeometry relative="1" as="geometry">
            <Array as="points">
              <mxPoint x="44" y="109" />
              <mxPoint x="-4" y="109" />
            </Array>
          </mxGeometry>
        </mxCell>
        <mxCell id="qSFVLpms0hrkaBnBQ-_W-12" value="&lt;span style=&quot;text-align: left; font-size: 9px;&quot;&gt;玛丽·伊丽莎白·布莱基斯顿&lt;br style=&quot;font-size: 9px;&quot;&gt;管家&lt;br style=&quot;font-size: 9px;&quot;&gt;&lt;/span&gt;" style="rounded=1;whiteSpace=wrap;html=1;sketch=0;fillColor=#f8cecc;strokeColor=#b85450;shadow=0;glass=0;fontColor=default;fontSize=9;" vertex="1" parent="1">
          <mxGeometry x="-5" y="153" width="97" height="53" as="geometry" />
        </mxCell>
        <mxCell id="qSFVLpms0hrkaBnBQ-_W-13" value="&lt;span style=&quot;text-align: left; font-size: 9px;&quot;&gt;马修·布莱基斯顿&lt;br style=&quot;font-size: 9px;&quot;&gt;&lt;/span&gt;" style="rounded=1;whiteSpace=wrap;html=1;sketch=0;shadow=0;glass=0;fontSize=9;" vertex="1" parent="1">
          <mxGeometry x="-172" y="91" width="108" height="50" as="geometry" />
        </mxCell>
        <mxCell id="qSFVLpms0hrkaBnBQ-_W-29" value="" style="edgeStyle=orthogonalEdgeStyle;rounded=0;orthogonalLoop=1;jettySize=auto;html=1;fontSize=9;fontColor=default;" edge="1" parent="1" source="qSFVLpms0hrkaBnBQ-_W-14" target="qSFVLpms0hrkaBnBQ-_W-28">
          <mxGeometry relative="1" as="geometry" />
        </mxCell>
        <mxCell id="qSFVLpms0hrkaBnBQ-_W-30" value="未婚妻" style="edgeLabel;html=1;align=center;verticalAlign=middle;resizable=0;points=[];fontSize=9;fontColor=default;" vertex="1" connectable="0" parent="qSFVLpms0hrkaBnBQ-_W-29">
          <mxGeometry x="0.1483" y="-2" relative="1" as="geometry">
            <mxPoint x="-7" y="-1" as="offset" />
          </mxGeometry>
        </mxCell>
        <mxCell id="qSFVLpms0hrkaBnBQ-_W-14" value="&lt;span style=&quot;text-align: left; font-size: 9px;&quot;&gt;罗伯特·布莱基斯顿&lt;br style=&quot;font-size: 9px;&quot;&gt;&lt;/span&gt;" style="rounded=1;whiteSpace=wrap;html=1;sketch=0;shadow=0;glass=0;fontSize=9;" vertex="1" parent="1">
          <mxGeometry x="78" y="-3" width="108" height="50" as="geometry" />
        </mxCell>
        <mxCell id="qSFVLpms0hrkaBnBQ-_W-15" value="&lt;span style=&quot;text-align: left; font-size: 9px;&quot;&gt;汤姆·布莱基斯顿&lt;br style=&quot;font-size: 9px;&quot;&gt;已去世&lt;br style=&quot;font-size: 9px;&quot;&gt;&lt;/span&gt;" style="rounded=1;whiteSpace=wrap;html=1;sketch=0;fillColor=#E0E0E0;strokeColor=#666666;shadow=0;glass=0;gradientColor=none;fontSize=9;" vertex="1" parent="1">
          <mxGeometry x="-83" width="105" height="47" as="geometry" />
        </mxCell>
        <mxCell id="qSFVLpms0hrkaBnBQ-_W-21" value="&lt;span style=&quot;font-family: &amp;quot;helvetica neue&amp;quot;, helvetica, arial, &amp;quot;pingfang sc&amp;quot;, &amp;quot;hiragino sans gb&amp;quot;, &amp;quot;heiti sc&amp;quot;, &amp;quot;microsoft yahei&amp;quot;, &amp;quot;wenquanyi micro hei&amp;quot;, sans-serif; font-size: 9px; text-indent: 40px;&quot;&gt;内维尔·布伦特&lt;br style=&quot;font-size: 9px;&quot;&gt;&lt;/span&gt;&lt;span style=&quot;text-align: left; font-size: 9px;&quot;&gt;园丁&lt;br style=&quot;font-size: 9px;&quot;&gt;&lt;/span&gt;" style="rounded=1;whiteSpace=wrap;html=1;sketch=0;shadow=0;glass=0;fontSize=9;fontColor=default;labelBackgroundColor=none;" vertex="1" parent="1">
          <mxGeometry x="-144" y="309" width="108" height="50" as="geometry" />
        </mxCell>
        <mxCell id="qSFVLpms0hrkaBnBQ-_W-22" value="&lt;span style=&quot;text-align: left&quot;&gt;&lt;font size=&quot;1&quot;&gt;杰夫·韦弗&lt;br&gt;掘墓人&lt;/font&gt;&lt;br style=&quot;font-size: 9px&quot;&gt;&lt;/span&gt;" style="rounded=1;whiteSpace=wrap;html=1;sketch=0;shadow=0;glass=0;fontSize=9;" vertex="1" parent="1">
          <mxGeometry x="-64" y="534" width="94" height="51" as="geometry" />
        </mxCell>
        <mxCell id="qSFVLpms0hrkaBnBQ-_W-25" value="父亲" style="edgeStyle=orthogonalEdgeStyle;rounded=0;orthogonalLoop=1;jettySize=auto;html=1;fontSize=9;fontColor=default;" edge="1" parent="1" source="qSFVLpms0hrkaBnBQ-_W-23" target="qSFVLpms0hrkaBnBQ-_W-22">
          <mxGeometry relative="1" as="geometry" />
        </mxCell>
        <mxCell id="qSFVLpms0hrkaBnBQ-_W-26" value="" style="edgeStyle=orthogonalEdgeStyle;rounded=0;orthogonalLoop=1;jettySize=auto;html=1;fontSize=9;fontColor=default;" edge="1" parent="1" source="qSFVLpms0hrkaBnBQ-_W-23" target="qSFVLpms0hrkaBnBQ-_W-24">
          <mxGeometry relative="1" as="geometry" />
        </mxCell>
        <mxCell id="qSFVLpms0hrkaBnBQ-_W-27" value="妻子" style="edgeLabel;html=1;align=center;verticalAlign=middle;resizable=0;points=[];fontSize=9;fontColor=default;" vertex="1" connectable="0" parent="qSFVLpms0hrkaBnBQ-_W-26">
          <mxGeometry x="0.2263" y="1" relative="1" as="geometry">
            <mxPoint x="-7" y="2" as="offset" />
          </mxGeometry>
        </mxCell>
        <mxCell id="qSFVLpms0hrkaBnBQ-_W-23" value="&lt;span style=&quot;text-align: left&quot;&gt;&lt;font size=&quot;1&quot;&gt;亚当·韦弗&lt;br&gt;掘墓人&lt;/font&gt;&lt;br style=&quot;font-size: 9px&quot;&gt;&lt;/span&gt;" style="rounded=1;whiteSpace=wrap;html=1;sketch=0;shadow=0;glass=0;fontSize=9;" vertex="1" parent="1">
          <mxGeometry x="96" y="534" width="94" height="51" as="geometry" />
        </mxCell>
        <mxCell id="qSFVLpms0hrkaBnBQ-_W-24" value="&lt;span style=&quot;text-align: left&quot;&gt;&lt;font size=&quot;1&quot;&gt;戴安娜·韦弗&lt;/font&gt;&lt;br style=&quot;font-size: 9px&quot;&gt;&lt;/span&gt;" style="rounded=1;whiteSpace=wrap;html=1;sketch=0;shadow=0;glass=0;fontSize=9;" vertex="1" parent="1">
          <mxGeometry x="244" y="534" width="94" height="51" as="geometry" />
        </mxCell>
        <mxCell id="qSFVLpms0hrkaBnBQ-_W-48" style="edgeStyle=orthogonalEdgeStyle;rounded=0;orthogonalLoop=1;jettySize=auto;html=1;fontSize=9;fontColor=default;" edge="1" parent="1" source="qSFVLpms0hrkaBnBQ-_W-28" target="qSFVLpms0hrkaBnBQ-_W-37">
          <mxGeometry relative="1" as="geometry" />
        </mxCell>
        <mxCell id="qSFVLpms0hrkaBnBQ-_W-49" value="在诊所工作" style="edgeLabel;html=1;align=center;verticalAlign=middle;resizable=0;points=[];fontSize=9;fontColor=default;" vertex="1" connectable="0" parent="qSFVLpms0hrkaBnBQ-_W-48">
          <mxGeometry x="-0.0542" y="3" relative="1" as="geometry">
            <mxPoint x="-3" y="27" as="offset" />
          </mxGeometry>
        </mxCell>
        <mxCell id="qSFVLpms0hrkaBnBQ-_W-28" value="&lt;span style=&quot;text-align: left&quot;&gt;&lt;font size=&quot;1&quot;&gt;乔伊·桑德林&lt;/font&gt;&lt;br style=&quot;font-size: 9px&quot;&gt;&lt;/span&gt;" style="rounded=1;whiteSpace=wrap;html=1;sketch=0;shadow=0;glass=0;fontSize=9;" vertex="1" parent="1">
          <mxGeometry x="252" y="-6" width="94" height="51" as="geometry" />
        </mxCell>
        <mxCell id="qSFVLpms0hrkaBnBQ-_W-33" value="" style="edgeStyle=orthogonalEdgeStyle;rounded=0;orthogonalLoop=1;jettySize=auto;html=1;fontSize=9;fontColor=default;" edge="1" parent="1" source="qSFVLpms0hrkaBnBQ-_W-35" target="qSFVLpms0hrkaBnBQ-_W-36">
          <mxGeometry relative="1" as="geometry" />
        </mxCell>
        <mxCell id="qSFVLpms0hrkaBnBQ-_W-34" value="妻子" style="edgeLabel;html=1;align=center;verticalAlign=middle;resizable=0;points=[];fontSize=9;fontColor=default;" vertex="1" connectable="0" parent="qSFVLpms0hrkaBnBQ-_W-33">
          <mxGeometry x="0.2263" y="1" relative="1" as="geometry">
            <mxPoint x="-7" y="2" as="offset" />
          </mxGeometry>
        </mxCell>
        <mxCell id="qSFVLpms0hrkaBnBQ-_W-35" value="&lt;span style=&quot;text-align: left&quot;&gt;&lt;font size=&quot;1&quot;&gt;罗宾·奥斯本&lt;br&gt;牧师&lt;/font&gt;&lt;br style=&quot;font-size: 9px&quot;&gt;&lt;/span&gt;" style="rounded=1;whiteSpace=wrap;html=1;sketch=0;shadow=0;glass=0;fontSize=9;" vertex="1" parent="1">
          <mxGeometry x="102" y="628" width="94" height="51" as="geometry" />
        </mxCell>
        <mxCell id="qSFVLpms0hrkaBnBQ-_W-36" value="&lt;span style=&quot;text-align: left&quot;&gt;&lt;font size=&quot;1&quot;&gt;汉丽埃塔·奥斯本&lt;/font&gt;&lt;br style=&quot;font-size: 9px&quot;&gt;&lt;/span&gt;" style="rounded=1;whiteSpace=wrap;html=1;sketch=0;shadow=0;glass=0;fontSize=9;" vertex="1" parent="1">
          <mxGeometry x="250" y="628" width="94" height="51" as="geometry" />
        </mxCell>
        <mxCell id="qSFVLpms0hrkaBnBQ-_W-39" value="" style="edgeStyle=orthogonalEdgeStyle;rounded=0;orthogonalLoop=1;jettySize=auto;html=1;fontSize=9;fontColor=default;" edge="1" parent="1" source="qSFVLpms0hrkaBnBQ-_W-37" target="qSFVLpms0hrkaBnBQ-_W-38">
          <mxGeometry relative="1" as="geometry" />
        </mxCell>
        <mxCell id="qSFVLpms0hrkaBnBQ-_W-43" value="父亲" style="edgeLabel;html=1;align=center;verticalAlign=middle;resizable=0;points=[];fontSize=9;fontColor=default;" vertex="1" connectable="0" parent="qSFVLpms0hrkaBnBQ-_W-39">
          <mxGeometry x="0.0479" y="2" relative="1" as="geometry">
            <mxPoint x="1" y="-2" as="offset" />
          </mxGeometry>
        </mxCell>
        <mxCell id="qSFVLpms0hrkaBnBQ-_W-41" value="" style="edgeStyle=orthogonalEdgeStyle;rounded=0;orthogonalLoop=1;jettySize=auto;html=1;fontSize=9;fontColor=default;" edge="1" parent="1" source="qSFVLpms0hrkaBnBQ-_W-37" target="qSFVLpms0hrkaBnBQ-_W-40">
          <mxGeometry relative="1" as="geometry" />
        </mxCell>
        <mxCell id="qSFVLpms0hrkaBnBQ-_W-42" value="丈夫" style="edgeLabel;html=1;align=center;verticalAlign=middle;resizable=0;points=[];fontSize=9;fontColor=default;" vertex="1" connectable="0" parent="qSFVLpms0hrkaBnBQ-_W-41">
          <mxGeometry x="-0.2053" y="-1" relative="1" as="geometry">
            <mxPoint x="3" y="-1" as="offset" />
          </mxGeometry>
        </mxCell>
        <mxCell id="qSFVLpms0hrkaBnBQ-_W-37" value="&lt;span style=&quot;text-align: left&quot;&gt;&lt;font size=&quot;1&quot;&gt;艾米莉亚·雷德温&lt;br&gt;&lt;/font&gt;医生&lt;br style=&quot;font-size: 9px&quot;&gt;&lt;/span&gt;" style="rounded=1;whiteSpace=wrap;html=1;sketch=0;shadow=0;glass=0;fontSize=9;" vertex="1" parent="1">
          <mxGeometry x="365.5" y="82" width="94" height="51" as="geometry" />
        </mxCell>
        <mxCell id="qSFVLpms0hrkaBnBQ-_W-50" value="" style="edgeStyle=orthogonalEdgeStyle;rounded=0;orthogonalLoop=1;jettySize=auto;html=1;fontSize=9;fontColor=default;" edge="1" parent="1" source="qSFVLpms0hrkaBnBQ-_W-38" target="qSFVLpms0hrkaBnBQ-_W-1">
          <mxGeometry relative="1" as="geometry" />
        </mxCell>
        <mxCell id="qSFVLpms0hrkaBnBQ-_W-52" style="edgeStyle=orthogonalEdgeStyle;rounded=0;orthogonalLoop=1;jettySize=auto;html=1;fontSize=9;fontColor=default;" edge="1" parent="1" source="qSFVLpms0hrkaBnBQ-_W-38" target="qSFVLpms0hrkaBnBQ-_W-9">
          <mxGeometry relative="1" as="geometry">
            <Array as="points">
              <mxPoint x="250" y="175" />
              <mxPoint x="389" y="175" />
            </Array>
          </mxGeometry>
        </mxCell>
        <mxCell id="qSFVLpms0hrkaBnBQ-_W-53" value="接生" style="edgeLabel;html=1;align=center;verticalAlign=middle;resizable=0;points=[];fontSize=9;fontColor=default;" vertex="1" connectable="0" parent="qSFVLpms0hrkaBnBQ-_W-52">
          <mxGeometry x="-0.8314" y="4" relative="1" as="geometry">
            <mxPoint x="-5" y="5" as="offset" />
          </mxGeometry>
        </mxCell>
        <mxCell id="qSFVLpms0hrkaBnBQ-_W-38" value="&lt;span style=&quot;text-align: left&quot;&gt;&lt;font size=&quot;1&quot;&gt;埃德加·雷纳德&lt;br&gt;&lt;/font&gt;退休医生&lt;br style=&quot;font-size: 9px&quot;&gt;&lt;/span&gt;" style="rounded=1;whiteSpace=wrap;html=1;sketch=0;shadow=0;glass=0;fontSize=9;" vertex="1" parent="1">
          <mxGeometry x="203" y="82" width="94" height="51" as="geometry" />
        </mxCell>
        <mxCell id="qSFVLpms0hrkaBnBQ-_W-40" value="&lt;span style=&quot;text-align: left&quot;&gt;&lt;font size=&quot;1&quot;&gt;亚瑟·雷德温&lt;br&gt;&lt;/font&gt;画家&lt;br style=&quot;font-size: 9px&quot;&gt;&lt;/span&gt;" style="rounded=1;whiteSpace=wrap;html=1;sketch=0;shadow=0;glass=0;fontSize=9;" vertex="1" parent="1">
          <mxGeometry x="518.5" y="82" width="94" height="51" as="geometry" />
        </mxCell>
        <mxCell id="qSFVLpms0hrkaBnBQ-_W-44" value="" style="edgeStyle=orthogonalEdgeStyle;rounded=0;orthogonalLoop=1;jettySize=auto;html=1;fontSize=9;fontColor=default;" edge="1" parent="1" source="qSFVLpms0hrkaBnBQ-_W-46" target="qSFVLpms0hrkaBnBQ-_W-47">
          <mxGeometry relative="1" as="geometry" />
        </mxCell>
        <mxCell id="qSFVLpms0hrkaBnBQ-_W-45" value="妻子" style="edgeLabel;html=1;align=center;verticalAlign=middle;resizable=0;points=[];fontSize=9;fontColor=default;" vertex="1" connectable="0" parent="qSFVLpms0hrkaBnBQ-_W-44">
          <mxGeometry x="0.2263" y="1" relative="1" as="geometry">
            <mxPoint x="-7" y="2" as="offset" />
          </mxGeometry>
        </mxCell>
        <mxCell id="qSFVLpms0hrkaBnBQ-_W-46" value="&lt;span style=&quot;text-align: left&quot;&gt;&lt;font size=&quot;1&quot;&gt;约翰尼·怀特海德&lt;br&gt;古董店店主&lt;/font&gt;&lt;br style=&quot;font-size: 9px&quot;&gt;&lt;/span&gt;" style="rounded=1;whiteSpace=wrap;html=1;sketch=0;shadow=0;glass=0;fontSize=9;" vertex="1" parent="1">
          <mxGeometry x="101" y="710" width="94" height="51" as="geometry" />
        </mxCell>
        <mxCell id="qSFVLpms0hrkaBnBQ-_W-47" value="&lt;span style=&quot;text-align: left&quot;&gt;&lt;font size=&quot;1&quot;&gt;杰玛·怀特海德&lt;/font&gt;&lt;br style=&quot;font-size: 9px&quot;&gt;&lt;/span&gt;" style="rounded=1;whiteSpace=wrap;html=1;sketch=0;shadow=0;glass=0;fontSize=9;" vertex="1" parent="1">
          <mxGeometry x="249" y="710" width="94" height="51" as="geometry" />
        </mxCell>
      </root>
    </mxGraphModel>
  </diagram>
</mxfile>
